<?xml version="1.0" encoding="UTF-8" standalone="no"?>
<!-- Created with DrawBerry (http://raphaelbost.free.fr/) -->
<svg 
 	 width = "475.000000" 
 	 height = "300.000000" 
xmlns:dc="http://purl.org/dc/elements/1.1/"
xmlns:cc="http://web.resource.org/cc/"
xmlns:rdf="http://www.w3.org/1999/02/22-rdf-syntax-ns#"
 xmlns:svg="http://www.w3.org/2000/svg"
 xmlns="http://www.w3.org/2000/svg" 
 xmlns:sodipodi="http://inkscape.sourceforge.net/DTD/sodipodi-0.dtd"
 xmlns:inkscape="http://www.inkscape.org/namespaces/inkscape"
 >
<g inkscape:label="Background" inkscape:groupmode="layer" id="Background">
<path  style="fill:#0c5827;fill-opacity:1.000000;stroke:none;" 
 d="M 461.062500,300.187500 L 27.203125,300.187500 L 27.203125,0.355469 L 461.062500,0.355469 L 461.062500,300.187500  z"  />
<path  style="fill:#7199c1;fill-opacity:1.000000;stroke:none;" 
 d="M 27.171875,66.429688 L 103.492188,66.429688 L 103.492188,131.296875 L 27.171875,131.296875 L 27.171875,66.429688  z"  />
<path  style="fill:#1d2a43;fill-opacity:1.000000;stroke:none;" 
 d="M 73.718750,247.554688 L 32.703125,247.554688 L 32.703125,179.582031 L 73.718750,179.582031 L 73.718750,247.554688  z"  />
<path  style="fill:#1d2a43;fill-opacity:1.000000;stroke:none;" 
 d="M 35.007812,277.324219 L 26.875000,277.324219 L 26.875000,149.570312 L 35.007812,149.570312 L 35.007812,277.324219  z"  />
<path  style="fill:#7199c1;fill-opacity:1.000000;stroke:none;" 
 d="M 8.359374,164.289062 L 27.167974,164.289062 L 27.167974,260.289062 L 8.359374,260.289062 L 8.359374,164.289062  z"  />
<path  style="fill:#7199c1;fill-opacity:1.000000;stroke:none;" 
 d="M 35.382812,158.398438 L 49.785156,158.398438 L 49.785156,173.988281 L 35.382812,173.988281 L 35.382812,158.398438  z"  />
<path  style="fill:#1d2a43;fill-opacity:1.000000;stroke:none;" 
 d="M 451.265625,227.328125 L 419.289062,227.328125 L 419.289062,67.648438 L 451.265625,67.648438 L 451.265625,227.328125  z"  />
<path  style="fill:#1d2a43;fill-opacity:1.000000;stroke:none;" 
 d="M 460.878906,257.558594 L 450.628906,257.558594 L 450.628906,34.378906 L 460.878906,34.378906 L 460.878906,257.558594  z"  />
<path  style="fill:#7199c1;fill-opacity:1.000000;stroke:none;" 
 d="M 460.878906,54.425781 L 483.945312,54.425781 L 483.945312,236.351562 L 460.878906,236.351562 L 460.878906,54.425781  z"  />
<path  style="fill:#1d2a43;fill-opacity:1.000000;stroke:none;" 
 d="M 357.492188,128.437500 L 326.183594,128.437500 L 326.183594,50.320312 L 357.492188,50.320312 L 357.492188,128.437500  z"  />
<path  style="fill:#7199c1;fill-opacity:1.000000;stroke:none;" 
 d="M 168.382812,174.140625 L 175.089844,174.140625 L 175.089844,251.351562 L 168.382812,251.351562 L 168.382812,174.140625  z"  />
<path  style="fill:#7199c1;fill-opacity:1.000000;stroke:none;" 
 d="M 178.382812,174.140625 L 185.089844,174.140625 L 185.089844,251.351562 L 178.382812,251.351562 L 178.382812,174.140625  z"  />
<path  style="fill:#7199c1;fill-opacity:1.000000;stroke:none;" 
 d="M 188.382812,174.140625 L 195.089844,174.140625 L 195.089844,251.351562 L 188.382812,251.351562 L 188.382812,174.140625  z"  />
<path  style="fill:#7199c1;fill-opacity:1.000000;stroke:none;" 
 d="M 198.382812,174.140625 L 205.089844,174.140625 L 205.089844,251.351562 L 198.382812,251.351562 L 198.382812,174.140625  z"  />
<path  style="fill:#7199c1;fill-opacity:1.000000;stroke:none;" 
 d="M 208.382812,174.140625 L 215.089844,174.140625 L 215.089844,251.351562 L 208.382812,251.351562 L 208.382812,174.140625  z"  />
<path  style="fill:#7199c1;fill-opacity:1.000000;stroke:none;" 
 d="M 218.382812,174.140625 L 225.089844,174.140625 L 225.089844,251.351562 L 218.382812,251.351562 L 218.382812,174.140625  z"  />
<path  style="fill:#7199c1;fill-opacity:1.000000;stroke:none;" 
 d="M 228.382812,174.140625 L 235.089844,174.140625 L 235.089844,251.351562 L 228.382812,251.351562 L 228.382812,174.140625  z"  />
<path  style="fill:#7199c1;fill-opacity:1.000000;stroke:none;" 
 d="M 238.382812,174.140625 L 245.089844,174.140625 L 245.089844,251.351562 L 238.382812,251.351562 L 238.382812,174.140625  z"  />
<path  style="fill:#7199c1;fill-opacity:1.000000;stroke:none;" 
 d="M 248.382812,174.140625 L 255.089844,174.140625 L 255.089844,251.351562 L 248.382812,251.351562 L 248.382812,174.140625  z"  />
<path  style="fill:#7199c1;fill-opacity:1.000000;stroke:none;" 
 d="M 258.382812,174.140625 L 265.089844,174.140625 L 265.089844,251.351562 L 258.382812,251.351562 L 258.382812,174.140625  z"  />
<path  style="fill:#7199c1;fill-opacity:1.000000;stroke:none;" 
 d="M 268.382812,174.140625 L 275.089844,174.140625 L 275.089844,251.351562 L 268.382812,251.351562 L 268.382812,174.140625  z"  />
<path  style="fill:#7199c1;fill-opacity:1.000000;stroke:none;" 
 d="M 278.382812,174.140625 L 285.089844,174.140625 L 285.089844,251.351562 L 278.382812,251.351562 L 278.382812,174.140625  z"  />
<path  style="fill:#7199c1;fill-opacity:1.000000;stroke:none;" 
 d="M 288.382812,174.140625 L 295.089844,174.140625 L 295.089844,251.351562 L 288.382812,251.351562 L 288.382812,174.140625  z"  />
<path  style="fill:#7199c1;fill-opacity:1.000000;stroke:none;" 
 d="M 298.382812,174.140625 L 305.089844,174.140625 L 305.089844,251.351562 L 298.382812,251.351562 L 298.382812,174.140625  z"  />
<path  style="fill:#7199c1;fill-opacity:1.000000;stroke:none;" 
 d="M 308.382812,174.140625 L 315.089844,174.140625 L 315.089844,251.351562 L 308.382812,251.351562 L 308.382812,174.140625  z"  />
<path  style="fill:#7199c1;fill-opacity:1.000000;stroke:none;" 
 d="M 318.382812,174.140625 L 325.089844,174.140625 L 325.089844,251.351562 L 318.382812,251.351562 L 318.382812,174.140625  z"  />
<path  style="fill:#7199c1;fill-opacity:1.000000;stroke:none;" 
 d="M 328.382812,174.140625 L 335.089844,174.140625 L 335.089844,251.351562 L 328.382812,251.351562 L 328.382812,174.140625  z"  />
<path  style="fill:#7199c1;fill-opacity:1.000000;stroke:none;" 
 d="M 338.382812,174.140625 L 345.089844,174.140625 L 345.089844,251.351562 L 338.382812,251.351562 L 338.382812,174.140625  z"  />
<path  style="fill:#7199c1;fill-opacity:1.000000;stroke:none;" 
 d="M 348.382812,174.140625 L 355.089844,174.140625 L 355.089844,251.351562 L 348.382812,251.351562 L 348.382812,174.140625  z"  />
<path  style="fill:#7199c1;fill-opacity:1.000000;stroke:none;" 
 d="M 358.382812,174.140625 L 365.089844,174.140625 L 365.089844,251.351562 L 358.382812,251.351562 L 358.382812,174.140625  z"  />
<path  style="fill:#1d2a43;fill-opacity:1.000000;stroke:none;" 
 d="M 373.476562,247.410156 L 160.261719,247.410156 L 160.261719,177.523438 L 373.476562,177.523438 L 373.476562,247.410156  z"  />
<path  style="fill:#7199c1;fill-opacity:1.000000;stroke:none;" 
 d="M 165.296875,82.835938 L 169.394531,82.835938 L 169.394531,126.542969 L 165.296875,126.542969 L 165.296875,82.835938  z"  />
<path  style="fill:#7199c1;fill-opacity:1.000000;stroke:none;" 
 d="M 175.296875,82.835938 L 179.394531,82.835938 L 179.394531,126.542969 L 175.296875,126.542969 L 175.296875,82.835938  z"  />
<path  style="fill:#7199c1;fill-opacity:1.000000;stroke:none;" 
 d="M 185.296875,82.835938 L 189.394531,82.835938 L 189.394531,126.542969 L 185.296875,126.542969 L 185.296875,82.835938  z"  />
<path  style="fill:#7199c1;fill-opacity:1.000000;stroke:none;" 
 d="M 195.296875,82.835938 L 199.394531,82.835938 L 199.394531,126.542969 L 195.296875,126.542969 L 195.296875,82.835938  z"  />
<path  style="fill:#7199c1;fill-opacity:1.000000;stroke:none;" 
 d="M 205.296875,82.835938 L 209.394531,82.835938 L 209.394531,126.542969 L 205.296875,126.542969 L 205.296875,82.835938  z"  />
<path  style="fill:#7199c1;fill-opacity:1.000000;stroke:none;" 
 d="M 215.296875,82.835938 L 219.394531,82.835938 L 219.394531,126.542969 L 215.296875,126.542969 L 215.296875,82.835938  z"  />
<path  style="fill:#7199c1;fill-opacity:1.000000;stroke:none;" 
 d="M 225.296875,82.835938 L 229.394531,82.835938 L 229.394531,126.542969 L 225.296875,126.542969 L 225.296875,82.835938  z"  />
<path  style="fill:#7199c1;fill-opacity:1.000000;stroke:none;" 
 d="M 235.296875,82.835938 L 239.394531,82.835938 L 239.394531,126.542969 L 235.296875,126.542969 L 235.296875,82.835938  z"  />
<path  style="fill:#7199c1;fill-opacity:1.000000;stroke:none;" 
 d="M 245.296875,82.835938 L 249.394531,82.835938 L 249.394531,126.542969 L 245.296875,126.542969 L 245.296875,82.835938  z"  />
<path  style="fill:#7199c1;fill-opacity:1.000000;stroke:none;" 
 d="M 255.296875,82.835938 L 259.394531,82.835938 L 259.394531,126.542969 L 255.296875,126.542969 L 255.296875,82.835938  z"  />
<path  style="fill:#7199c1;fill-opacity:1.000000;stroke:none;" 
 d="M 265.296875,82.835938 L 269.394531,82.835938 L 269.394531,126.542969 L 265.296875,126.542969 L 265.296875,82.835938  z"  />
<path  style="fill:#7199c1;fill-opacity:1.000000;stroke:none;" 
 d="M 275.296875,82.835938 L 279.394531,82.835938 L 279.394531,126.542969 L 275.296875,126.542969 L 275.296875,82.835938  z"  />
<path  style="fill:#7199c1;fill-opacity:1.000000;stroke:none;" 
 d="M 285.296875,82.835938 L 289.394531,82.835938 L 289.394531,126.542969 L 285.296875,126.542969 L 285.296875,82.835938  z"  />
<path  style="fill:#7199c1;fill-opacity:1.000000;stroke:none;" 
 d="M 295.296875,82.792969 L 299.394531,82.792969 L 299.394531,126.500000 L 295.296875,126.500000 L 295.296875,82.792969  z"  />
<path  style="fill:#1d2a43;fill-opacity:1.000000;stroke:none;" 
 d="M 304.976562,123.535156 L 159.488281,123.535156 L 159.488281,86.101562 L 304.976562,86.101562 L 304.976562,123.535156  z"  />
<path  style="fill:#1d2a43;fill-opacity:1.000000;stroke:none;" 
 d="M 397.531250,113.792969 L 366.222656,113.792969 L 366.222656,35.675781 L 397.531250,35.675781 L 397.531250,113.792969  z"  />
<path  style="fill:#1d2a43;fill-opacity:1.000000;stroke:none;" 
 d="M 397.531250,127.792969 L 366.222656,127.792969 L 366.222656,117.320312 L 397.531250,117.320312 L 397.531250,127.792969  z"  />
<path  style="fill:none;stroke:none;" 
 d="M nan,nan C nan,nan nan,nan nan,nan C nan,nan nan,nan nan,nan C nan,nan nan,nan nan,nan C nan,nan nan,nan nan,nan C nan,nan nan,nan nan,nan C nan,nan nan,nan nan,nan C nan,nan nan,nan nan,nan C nan,nan nan,nan nan,nan  zM nan,nan "  />
<path  style="fill:none;stroke:none;" 
 d="M 361.980469,43.238281 L 322.878906,43.238281 L 322.878906,30.574219 L 361.980469,30.574219 L 361.980469,43.238281  z"  />
<path  style="fill:none;stroke:none;" 
 d="M 400.968750,35.562500 L 361.867188,35.562500 L 361.867188,22.898438 L 400.968750,22.898438 L 400.968750,35.562500  z"  />
<path  style="fill:#7199c1;fill-opacity:1.000000;stroke:none;" 
 d="M 35.019531,253.167969 L 49.421875,253.167969 L 49.421875,268.757812 L 35.019531,268.757812 L 35.019531,253.167969  z"  />
<path  style="fill:#7199c1;fill-opacity:1.000000;stroke:none;" 
 d="M 434.074219,41.226562 L 450.839844,41.226562 L 450.839844,59.433594 L 434.074219,59.433594 L 434.074219,41.226562  z"  />
<path  style="fill:#7199c1;fill-opacity:1.000000;stroke:none;" 
 d="M 434.792969,233.757812 L 451.558594,233.757812 L 451.558594,251.964844 L 434.792969,251.964844 L 434.792969,233.757812  z"  />
</g>
</svg>
